<svg width="30" height="29" viewBox="0 0 30 29" fill="none" xmlns="http://www.w3.org/2000/svg">
<path d="M11.2199 22.286C11.2199 22.7593 11.6228 23.1431 12.1199 23.1431C12.6169 23.1431 13.0199 22.7593 13.0199 22.286H11.2199ZM12.1199 19.7362L11.2206 19.7035C11.2201 19.7144 11.2199 19.7253 11.2199 19.7362H12.1199ZM14.9999 17.1877L14.9682 18.0442C14.9893 18.0449 15.0105 18.0449 15.0316 18.0442L14.9999 17.1877ZM17.8799 19.7362H18.7799C18.7799 19.7253 18.7797 19.7144 18.7793 19.7035L17.8799 19.7362ZM16.9799 22.286C16.9799 22.7593 17.3829 23.1431 17.8799 23.1431C18.3769 23.1431 18.7799 22.7593 18.7799 22.286H16.9799ZM12.1199 21.4288C11.6228 21.4288 11.2199 21.8126 11.2199 22.286C11.2199 22.7593 11.6228 23.1431 12.1199 23.1431V21.4288ZM17.8799 23.1431C18.3769 23.1431 18.7799 22.7593 18.7799 22.286C18.7799 21.8126 18.3769 21.4288 17.8799 21.4288V23.1431ZM12.1199 23.1431C12.6169 23.1431 13.0199 22.7593 13.0199 22.286C13.0199 21.8126 12.6169 21.4288 12.1199 21.4288V23.1431ZM11.3999 22.286V21.4288C11.3893 21.4288 11.3788 21.4289 11.3682 21.4293L11.3999 22.286ZM7.0799 18.462H6.1799C6.1799 18.4727 6.18011 18.4836 6.18054 18.4944L7.0799 18.462ZM7.9799 10.7979C7.9799 10.3245 7.57695 9.94079 7.0799 9.94079C6.58284 9.94079 6.1799 10.3245 6.1799 10.7979H7.9799ZM3.69446 11.9504C3.28318 12.2163 3.17608 12.7493 3.45522 13.1411C3.73438 13.5327 4.29407 13.6347 4.70534 13.3688L3.69446 11.9504ZM7.58534 11.5071C7.99661 11.2413 8.10371 10.7082 7.82457 10.3166C7.54541 9.92488 6.98572 9.82287 6.57446 10.0887L7.58534 11.5071ZM6.57446 10.0887C6.16317 10.3546 6.05608 10.8876 6.3352 11.2793C6.61433 11.671 7.17406 11.773 7.58534 11.5071L6.57446 10.0887ZM13.3391 6.75222L12.8508 6.03218C12.8451 6.03573 12.8393 6.03933 12.8337 6.04299L13.3391 6.75222ZM16.6607 6.75222L17.1661 6.04299C17.1605 6.03933 17.1547 6.03573 17.149 6.03218L16.6607 6.75222ZM22.4145 11.5072C22.8258 11.773 23.3855 11.671 23.6646 11.2793C23.9437 10.8876 23.8366 10.3545 23.4253 10.0887L22.4145 11.5072ZM17.8799 21.4288C17.3829 21.4288 16.9799 21.8126 16.9799 22.286C16.9799 22.7593 17.3829 23.1431 17.8799 23.1431V21.4288ZM18.5999 22.286L18.6316 21.4293C18.621 21.4289 18.6105 21.4288 18.5999 21.4288V22.286ZM22.9199 18.462L23.8193 18.4944C23.8197 18.4836 23.8199 18.4727 23.8199 18.462H22.9199ZM23.8199 10.7979C23.8199 10.3245 23.4169 9.94079 22.9199 9.94079C22.4229 9.94079 22.0199 10.3245 22.0199 10.7979H23.8199ZM25.2947 13.3678C25.7061 13.6336 26.2657 13.5315 26.5447 13.1397C26.8237 12.7479 26.7165 12.2149 26.3051 11.9492L25.2947 13.3678ZM23.4253 10.0887C23.014 9.82296 22.4542 9.925 22.1751 10.3168C21.8961 10.7085 22.0031 11.2414 22.4145 11.5072L23.4253 10.0887ZM13.0199 22.286V19.7362H11.2199V22.286H13.0199ZM13.0193 19.7689C13.0589 18.7808 13.9306 18.0094 14.9682 18.0442L15.0316 16.331C13.0025 16.263 11.2981 17.7712 11.2206 19.7035L13.0193 19.7689ZM15.0316 18.0442C16.0692 18.0094 16.9409 18.7808 16.9805 19.7689L18.7793 19.7035C18.7018 17.7712 16.9973 16.263 14.9682 16.331L15.0316 18.0442ZM16.9799 19.7362V22.286H18.7799V19.7362H16.9799ZM12.1199 23.1431H17.8799V21.4288H12.1199V23.1431ZM12.1199 21.4288H11.3999V23.1431H12.1199V21.4288ZM11.3682 21.4293C9.56349 21.4898 8.04767 20.148 7.97925 18.4295L6.18054 18.4944C6.28655 21.1573 8.63524 23.2364 11.4316 23.1425L11.3682 21.4293ZM7.9799 18.462V10.7979H6.1799V18.462H7.9799ZM4.70534 13.3688L7.58534 11.5071L6.57446 10.0887L3.69446 11.9504L4.70534 13.3688ZM7.58534 11.5071L13.8445 7.46145L12.8337 6.04299L6.57446 10.0887L7.58534 11.5071ZM13.8274 7.47225C14.5411 7.03324 15.4587 7.03324 16.1724 7.47225L17.149 6.03218C15.8409 5.22755 14.1589 5.22755 12.8508 6.03218L13.8274 7.47225ZM16.1553 7.46145L22.4145 11.5072L23.4253 10.0887L17.1661 6.04299L16.1553 7.46145ZM17.8799 23.1431H18.5999V21.4288H17.8799V23.1431ZM18.5682 23.1425C21.3646 23.2364 23.7132 21.1573 23.8193 18.4944L22.0205 18.4295C21.9521 20.148 20.4363 21.4898 18.6316 21.4293L18.5682 23.1425ZM23.8199 18.462V10.7979H22.0199V18.462H23.8199ZM26.3051 11.9492L23.4253 10.0887L22.4145 11.5072L25.2947 13.3678L26.3051 11.9492Z" fill="black"/>
</svg>
