<svg width="35" height="35" viewBox="0 0 35 35" fill="none" xmlns="http://www.w3.org/2000/svg">
<g clip-path="url(#clip0_22_551)">
<path d="M11.6676 17.5C11.6676 14.2785 14.2785 11.6662 17.5 11.6662C20.7215 11.6662 23.3338 14.2785 23.3338 17.5C23.3338 20.7215 20.7215 23.3338 17.5 23.3338C14.2785 23.3338 11.6676 20.7215 11.6676 17.5ZM8.51396 17.5C8.51396 22.463 12.537 26.486 17.5 26.486C22.463 26.486 26.486 22.463 26.486 17.5C26.486 12.537 22.463 8.51396 17.5 8.51396C12.537 8.51396 8.51396 12.537 8.51396 17.5ZM24.7418 8.15766C24.7416 8.573 24.8646 8.97906 25.0952 9.3245C25.3258 9.66994 25.6537 9.93923 26.0374 10.0983C26.421 10.2574 26.8433 10.2992 27.2506 10.2183C27.658 10.1374 28.0323 9.93759 28.3261 9.64402C28.6199 9.35044 28.8201 8.97634 28.9013 8.56901C28.9825 8.16169 28.941 7.73943 28.7822 7.35564C28.6235 6.97185 28.3544 6.64377 28.0092 6.41288C27.6639 6.18199 27.258 6.05867 26.8426 6.0585H26.8418C26.285 6.05876 25.7512 6.27998 25.3574 6.67357C24.9637 7.06715 24.7423 7.60093 24.7418 8.15766ZM10.43 31.7446C8.72382 31.6669 7.79646 31.3827 7.18018 31.1426C6.36314 30.8245 5.78018 30.4457 5.16726 29.8336C4.55434 29.2215 4.17494 28.6391 3.85826 27.8221C3.61802 27.2061 3.33382 26.2784 3.25626 24.5722C3.17142 22.7276 3.15448 22.1735 3.15448 17.5001C3.15448 12.8268 3.17282 12.2742 3.25626 10.428C3.33396 8.72186 3.62026 7.79604 3.85826 7.17822C4.17634 6.36118 4.55518 5.77822 5.16726 5.1653C5.77934 4.55238 6.36174 4.17298 7.18018 3.8563C7.79618 3.61606 8.72382 3.33186 10.43 3.2543C12.2746 3.16946 12.8288 3.15252 17.5 3.15252C22.1712 3.15252 22.7259 3.17086 24.5721 3.2543C26.2783 3.332 27.2041 3.6183 27.8219 3.8563C28.639 4.17298 29.2219 4.55322 29.8348 5.1653C30.4478 5.77738 30.8258 6.36118 31.1438 7.17822C31.3841 7.79422 31.6683 8.72186 31.7458 10.428C31.8307 12.2742 31.8476 12.8268 31.8476 17.5001C31.8476 22.1735 31.8307 22.7261 31.7458 24.5722C31.6681 26.2784 31.3825 27.2058 31.1438 27.8221C30.8258 28.6391 30.4469 29.2221 29.8348 29.8336C29.2228 30.4451 28.639 30.8245 27.8219 31.1426C27.2059 31.3828 26.2783 31.667 24.5721 31.7446C22.7275 31.8294 22.1733 31.8464 17.5 31.8464C12.8267 31.8464 12.2741 31.8294 10.43 31.7446ZM10.2851 0.10598C8.42212 0.19082 7.1491 0.48622 6.03736 0.91882C4.886 1.36556 3.91132 1.9649 2.93734 2.93734C1.96336 3.90978 1.36556 4.886 0.91882 6.03736C0.48622 7.1498 0.19082 8.42212 0.10598 10.2851C0.01974 12.151 0 12.7476 0 17.5C0 22.2524 0.01974 22.849 0.10598 24.7149C0.19082 26.578 0.48622 27.8502 0.91882 28.9626C1.36556 30.1133 1.9635 31.0906 2.93734 32.0627C3.91118 33.0347 4.886 33.6332 6.03736 34.0812C7.1512 34.5138 8.42212 34.8092 10.2851 34.894C12.152 34.9789 12.7476 35 17.5 35C22.2524 35 22.849 34.9803 24.7149 34.894C26.578 34.8092 27.8502 34.5138 28.9626 34.0812C30.1133 33.6332 31.0887 33.0351 32.0627 32.0627C33.0366 31.0902 33.6332 30.1133 34.0812 28.9626C34.5138 27.8502 34.8106 26.5779 34.894 24.7149C34.9789 22.8476 34.9986 22.2524 34.9986 17.5C34.9986 12.7476 34.9789 12.151 34.894 10.2851C34.8092 8.42198 34.5138 7.1491 34.0812 6.03736C33.6332 4.8867 33.0351 3.91132 32.0627 2.93734C31.0902 1.96336 30.1133 1.36556 28.964 0.91882C27.8502 0.48622 26.5779 0.18942 24.7163 0.10598C22.8504 0.02114 22.2538 0 17.5014 0C12.749 0 12.152 0.01974 10.2851 0.10598Z" fill="url(#paint0_radial_22_551)"/>
<path d="M11.6676 17.5C11.6676 14.2785 14.2785 11.6662 17.5 11.6662C20.7215 11.6662 23.3338 14.2785 23.3338 17.5C23.3338 20.7215 20.7215 23.3338 17.5 23.3338C14.2785 23.3338 11.6676 20.7215 11.6676 17.5ZM8.51396 17.5C8.51396 22.463 12.537 26.486 17.5 26.486C22.463 26.486 26.486 22.463 26.486 17.5C26.486 12.537 22.463 8.51396 17.5 8.51396C12.537 8.51396 8.51396 12.537 8.51396 17.5ZM24.7418 8.15766C24.7416 8.573 24.8646 8.97906 25.0952 9.3245C25.3258 9.66994 25.6537 9.93923 26.0374 10.0983C26.421 10.2574 26.8433 10.2992 27.2506 10.2183C27.658 10.1374 28.0323 9.93759 28.3261 9.64402C28.6199 9.35044 28.8201 8.97634 28.9013 8.56901C28.9825 8.16169 28.941 7.73943 28.7822 7.35564C28.6235 6.97185 28.3544 6.64377 28.0092 6.41288C27.6639 6.18199 27.258 6.05867 26.8426 6.0585H26.8418C26.285 6.05876 25.7512 6.27998 25.3574 6.67357C24.9637 7.06715 24.7423 7.60093 24.7418 8.15766ZM10.43 31.7446C8.72382 31.6669 7.79646 31.3827 7.18018 31.1426C6.36314 30.8245 5.78018 30.4457 5.16726 29.8336C4.55434 29.2215 4.17494 28.6391 3.85826 27.8221C3.61802 27.2061 3.33382 26.2784 3.25626 24.5722C3.17142 22.7276 3.15448 22.1735 3.15448 17.5001C3.15448 12.8268 3.17282 12.2742 3.25626 10.428C3.33396 8.72186 3.62026 7.79604 3.85826 7.17822C4.17634 6.36118 4.55518 5.77822 5.16726 5.1653C5.77934 4.55238 6.36174 4.17298 7.18018 3.8563C7.79618 3.61606 8.72382 3.33186 10.43 3.2543C12.2746 3.16946 12.8288 3.15252 17.5 3.15252C22.1712 3.15252 22.7259 3.17086 24.5721 3.2543C26.2783 3.332 27.2041 3.6183 27.8219 3.8563C28.639 4.17298 29.2219 4.55322 29.8348 5.1653C30.4478 5.77738 30.8258 6.36118 31.1438 7.17822C31.3841 7.79422 31.6683 8.72186 31.7458 10.428C31.8307 12.2742 31.8476 12.8268 31.8476 17.5001C31.8476 22.1735 31.8307 22.7261 31.7458 24.5722C31.6681 26.2784 31.3825 27.2058 31.1438 27.8221C30.8258 28.6391 30.4469 29.2221 29.8348 29.8336C29.2228 30.4451 28.639 30.8245 27.8219 31.1426C27.2059 31.3828 26.2783 31.667 24.5721 31.7446C22.7275 31.8294 22.1733 31.8464 17.5 31.8464C12.8267 31.8464 12.2741 31.8294 10.43 31.7446ZM10.2851 0.10598C8.42212 0.19082 7.1491 0.48622 6.03736 0.91882C4.886 1.36556 3.91132 1.9649 2.93734 2.93734C1.96336 3.90978 1.36556 4.886 0.91882 6.03736C0.48622 7.1498 0.19082 8.42212 0.10598 10.2851C0.01974 12.151 0 12.7476 0 17.5C0 22.2524 0.01974 22.849 0.10598 24.7149C0.19082 26.578 0.48622 27.8502 0.91882 28.9626C1.36556 30.1133 1.9635 31.0906 2.93734 32.0627C3.91118 33.0347 4.886 33.6332 6.03736 34.0812C7.1512 34.5138 8.42212 34.8092 10.2851 34.894C12.152 34.9789 12.7476 35 17.5 35C22.2524 35 22.849 34.9803 24.7149 34.894C26.578 34.8092 27.8502 34.5138 28.9626 34.0812C30.1133 33.6332 31.0887 33.0351 32.0627 32.0627C33.0366 31.0902 33.6332 30.1133 34.0812 28.9626C34.5138 27.8502 34.8106 26.5779 34.894 24.7149C34.9789 22.8476 34.9986 22.2524 34.9986 17.5C34.9986 12.7476 34.9789 12.151 34.894 10.2851C34.8092 8.42198 34.5138 7.1491 34.0812 6.03736C33.6332 4.8867 33.0351 3.91132 32.0627 2.93734C31.0902 1.96336 30.1133 1.36556 28.964 0.91882C27.8502 0.48622 26.5779 0.18942 24.7163 0.10598C22.8504 0.02114 22.2538 0 17.5014 0C12.749 0 12.152 0.01974 10.2851 0.10598Z" fill="url(#paint1_radial_22_551)"/>
</g>
<defs>
<radialGradient id="paint0_radial_22_551" cx="0" cy="0" r="1" gradientUnits="userSpaceOnUse" gradientTransform="translate(4.64996 35.1653) scale(45.6896 45.6896)">
<stop offset="0.09" stop-color="#FA8F21"/>
<stop offset="0.78" stop-color="#D82D7E"/>
</radialGradient>
<radialGradient id="paint1_radial_22_551" cx="0" cy="0" r="1" gradientUnits="userSpaceOnUse" gradientTransform="translate(21.226 36.7333) scale(36.0097 36.0097)">
<stop offset="0.64" stop-color="#8C3AAA" stop-opacity="0"/>
<stop offset="1" stop-color="#8C3AAA"/>
</radialGradient>
<clipPath id="clip0_22_551">
<rect width="35" height="35" fill="white"/>
</clipPath>
</defs>
</svg>
