<svg width="35" height="35" viewBox="0 0 35 35" fill="none" xmlns="http://www.w3.org/2000/svg">
<path d="M26.7422 26.7422H22.8528V20.65C22.8528 19.1975 22.8266 17.3272 20.8294 17.3272C18.8038 17.3272 18.4931 18.911 18.4931 20.5428V26.7422H14.6038V14.2144H18.3378V15.9272H18.3903C19.1516 14.6278 20.5691 13.8491 22.0741 13.9038C26.0159 13.9038 26.7444 16.496 26.7444 19.8713L26.7422 26.74V26.7422ZM10.2156 12.5016C9.61816 12.4987 9.04595 12.2603 8.62327 11.838C8.2006 11.4157 7.96158 10.8437 7.95813 10.2463C7.95813 9.00816 8.9775 7.98878 10.2156 7.98878C11.4538 7.98878 12.4709 9.00816 12.4731 10.2463C12.4731 11.4844 11.4538 12.5016 10.2156 12.5016ZM12.1603 26.7422H8.26656V14.2144H12.1603V26.7422ZM28.6781 4.37503H6.31094C5.80377 4.37209 5.31593 4.56941 4.95343 4.92413C4.59093 5.27885 4.38306 5.76229 4.375 6.26941V28.7307C4.38306 29.2378 4.59093 29.7212 4.95343 30.0759C5.31593 30.4307 5.80377 30.628 6.31094 30.625H28.6803C29.1887 30.6292 29.6781 30.4325 30.0422 30.0778C30.4064 29.723 30.6158 29.2389 30.625 28.7307V6.26722C30.6158 5.75934 30.4062 5.27569 30.0419 4.92166C29.6777 4.56764 29.1882 4.37194 28.6803 4.37722L28.6781 4.37503Z" fill="#0A66C2"/>
</svg>
