<svg width="800" height="800" viewBox="0 0 800 800" fill="none" xmlns="http://www.w3.org/2000/svg">
<path fill-rule="evenodd" clip-rule="evenodd" d="M394.817 722.06C271.758 722.06 166.667 702.91 166.667 626.217C166.667 549.527 271.091 478.727 394.817 478.727C517.88 478.727 622.97 548.84 622.97 625.533C622.97 702.193 518.547 722.06 394.817 722.06Z" stroke="#130F26" stroke-width="50" stroke-linecap="round" stroke-linejoin="round"/>
<path fill-rule="evenodd" clip-rule="evenodd" d="M394.573 372.45C475.333 372.45 540.787 306.997 540.787 226.239C540.787 145.482 475.333 79.9966 394.573 79.9966C313.817 79.9966 248.333 145.482 248.333 226.239C248.06 306.724 313.06 372.18 393.543 372.45C393.907 372.45 394.24 372.45 394.573 372.45Z" stroke="#130F26" stroke-width="50" stroke-linecap="round" stroke-linejoin="round"/>
</svg>
