<svg width="313" height="81" viewBox="0 0 313 81" fill="none" xmlns="http://www.w3.org/2000/svg">
<path d="M46.3093 19.9082C45.1659 16.2962 43.3691 13.1042 41.0822 10.4162C38.7136 7.81217 35.7733 5.62817 32.2614 4.03217C28.7494 2.52017 24.6656 1.68018 20.0919 1.68018H0V8.40017H20.0919C23.3589 8.40017 26.2175 8.98817 28.831 10.1642C31.363 11.3402 33.4865 12.9362 35.2833 14.8682C37.0801 16.8842 38.3869 19.3202 39.2854 22.1762C40.1838 25.0322 40.6738 28.1402 40.6738 31.4162C40.6738 34.7762 40.1838 37.8002 39.2854 40.6562C38.3869 43.5122 37.0801 45.9482 35.365 47.9642C33.6498 50.0642 31.5263 51.7442 28.9127 52.8362C26.2991 54.0122 23.3589 54.6002 20.0919 54.6002H7.3507V16.3802H0V61.3202H20.0919C24.3389 61.3202 28.1777 60.6482 31.608 59.2202C35.0383 57.7922 38.0602 55.7762 40.5105 53.1722C42.9607 50.5682 44.8392 47.4602 46.146 43.7642C47.4528 40.0682 48.1062 35.9522 48.1062 31.4162C48.1062 27.3842 47.4528 23.5202 46.3093 19.9082Z" fill="white"/>
<path d="M57.4006 61.32H64.588V17.472H57.4006V61.32ZM57.4006 9.24H64.588V0H57.4006V9.24Z" fill="white"/>
<path d="M93.2122 61.8238C94.6824 61.8238 96.2342 61.6558 97.7043 61.2358C99.1744 60.8998 100.563 60.3118 101.87 59.5558C103.176 58.7998 104.32 57.8758 105.463 56.7838C106.607 55.6918 107.587 54.4318 108.404 53.0878V60.8158C108.404 63.1678 107.995 65.0998 107.179 66.7798C106.362 68.4598 105.382 69.8878 104.075 70.9798C102.768 72.1558 101.216 72.9958 99.4194 73.4998C97.6226 74.0878 95.8258 74.3398 93.8656 74.3398C90.762 74.3398 87.8217 73.7518 85.2081 72.4078C82.5128 71.1478 80.3077 69.2158 78.6742 66.6118L74.5088 70.3918C76.469 73.4158 79.0009 75.8518 82.0228 77.5318C85.0448 79.2118 88.9651 80.0518 93.8656 80.0518C96.8059 80.0518 99.6645 79.6318 102.278 78.7918C104.892 77.9518 107.26 76.7758 109.22 75.0958C111.181 73.4998 112.732 71.4838 113.876 69.1318C115.019 66.7798 115.591 64.0078 115.591 60.8158V17.4718H109.22V26.2078C107.424 23.5198 105.218 21.2518 102.605 19.4038C99.9912 17.6398 96.8875 16.7158 93.2939 16.7158C90.3536 16.7158 87.6583 17.3878 85.2081 18.5638C82.7579 19.7398 80.716 21.4198 79.0009 23.4358C77.204 25.5358 75.8972 27.9718 74.9171 30.7438C73.9371 33.5158 73.5287 36.4558 73.5287 39.4798C73.5287 42.4198 73.9371 45.1918 74.9171 47.8798C75.8972 50.5678 77.204 53.0038 79.0009 55.0198C80.716 57.1198 82.7579 58.7998 85.2081 59.9758C87.6583 61.2358 90.2719 61.8238 93.2122 61.8238ZM95.4174 55.7758C93.2939 55.7758 91.4153 55.3558 89.6185 54.5158C87.8217 53.6758 86.3516 52.4998 85.0448 50.9878C83.738 49.5598 82.6762 47.8798 81.9412 45.8638C81.1244 43.9318 80.7977 41.8318 80.7977 39.6478C80.7977 37.6318 81.1244 35.6998 81.7778 33.6838C82.4312 31.6678 83.3296 29.9038 84.5547 28.3078C85.6982 26.7958 87.1683 25.5358 88.8835 24.5278C90.5986 23.6038 92.5588 23.0998 94.764 23.0998C96.1525 23.0998 97.5409 23.3518 98.9294 23.8558C100.318 24.3598 101.625 25.1158 102.85 26.0398C103.993 26.9638 105.055 28.0558 106.035 29.2318C107.015 30.4918 107.75 31.8358 108.404 33.3478V45.9478C108.077 47.2078 107.587 48.3838 106.77 49.5598C105.953 50.7358 104.892 51.8278 103.748 52.7518C102.523 53.6758 101.216 54.4318 99.8278 54.9358C98.3577 55.5238 96.8875 55.7758 95.4174 55.7758Z" fill="white"/>
<path d="M127.111 61.32H134.298V17.472H127.111V61.32ZM127.111 9.24H134.298V0H127.111V9.24Z" fill="white"/>
<path d="M140.952 1.68018L160.39 50.6522L164.066 42.0002L148.711 1.68018H140.952ZM187.016 1.68018L167.904 51.8282L164.311 60.4802L164.719 61.3202H171.09L194.775 1.68018H187.016Z" fill="white"/>
<path d="M214.486 62.1598C217.671 62.1598 220.611 61.5718 223.225 60.3118C225.838 59.1358 228.125 57.4558 230.085 55.3558C231.964 53.3398 233.434 50.9038 234.496 48.1318C235.476 45.4438 236.048 42.5038 236.048 39.4798C236.048 36.4558 235.476 33.5158 234.414 30.7438C233.353 28.0558 231.882 25.6198 230.004 23.5198C228.125 21.5038 225.838 19.8238 223.225 18.5638C220.53 17.3878 217.589 16.7158 214.486 16.7158C211.3 16.7158 208.36 17.3878 205.747 18.5638C203.133 19.8238 200.846 21.5038 198.968 23.5198C197.089 25.6198 195.619 28.0558 194.557 30.7438C193.495 33.5158 193.005 36.4558 193.005 39.4798C193.005 42.5038 193.495 45.4438 194.557 48.1318C195.537 50.9038 197.007 53.3398 198.886 55.3558C200.764 57.4558 203.051 59.1358 205.665 60.3118C208.279 61.5718 211.219 62.1598 214.486 62.1598ZM200.356 39.5638C200.356 37.2958 200.683 35.1958 201.418 33.1798C202.153 31.1638 203.133 29.4838 204.44 27.9718C205.747 26.4598 207.217 25.2838 208.932 24.4438C210.647 23.6038 212.526 23.0998 214.486 23.0998C216.446 23.0998 218.243 23.5198 219.958 24.3598C221.673 25.1998 223.225 26.3758 224.532 27.8878C225.838 29.3998 226.819 31.0798 227.554 33.0958C228.289 35.1118 228.697 37.2118 228.697 39.3958C228.697 41.7478 228.289 43.8478 227.554 45.8638C226.819 47.8798 225.838 49.5598 224.532 51.0718C223.225 52.5838 221.673 53.6758 219.958 54.5158C218.243 55.3558 216.446 55.7758 214.486 55.7758C212.526 55.7758 210.647 55.3558 208.932 54.5158C207.217 53.6758 205.747 52.5838 204.44 51.0718C203.133 49.6438 202.153 47.9638 201.418 45.9478C200.683 44.0158 200.356 41.9158 200.356 39.5638Z" fill="white"/>
<path d="M266.251 59.136L264.536 53.256C264.046 53.592 263.229 53.928 262.085 54.432C260.942 54.936 259.635 55.104 258.247 55.104C256.94 55.104 255.878 54.768 254.98 54.012C254 53.34 253.51 52.164 253.428 50.484V23.268H262.984V17.472H253.428V2.85596H246.241V17.472H240.442V23.268H246.241V52.752C246.241 55.944 247.139 58.212 249.099 59.724C250.978 61.236 253.265 61.908 255.878 61.908C257.022 61.908 258.083 61.824 259.145 61.656C260.207 61.488 261.187 61.236 262.085 60.9C262.984 60.564 263.801 60.312 264.536 59.976C265.189 59.64 265.761 59.388 266.251 59.136Z" fill="white"/>
<path d="M291.141 62.1598C293.264 62.1598 295.306 61.9078 297.266 61.3198C299.227 60.8158 300.942 60.0598 302.575 59.0518C304.209 58.0438 305.597 56.8678 306.822 55.5238C308.047 54.1798 309.028 52.7518 309.763 51.0718L303.555 49.3078C303.065 50.4838 302.412 51.4918 301.595 52.3318C300.779 53.2558 299.798 54.0118 298.737 54.5998C297.593 55.2718 296.45 55.7758 295.225 56.1118C293.918 56.4478 292.693 56.6158 291.386 56.6158C289.507 56.6158 287.711 56.2798 286.077 55.5238C284.444 54.8518 282.974 53.8438 281.667 52.4998C280.36 51.2398 279.298 49.7278 278.481 47.8798C277.665 46.1158 277.175 44.0998 277.011 41.9158H312.376C312.376 41.6638 312.458 41.2438 312.458 40.7398C312.458 40.2358 312.54 39.7318 312.54 39.0598C312.54 36.2038 311.968 33.3478 310.988 30.6598C310.008 27.9718 308.538 25.5358 306.741 23.5198C304.862 21.5038 302.575 19.8238 299.962 18.5638C297.348 17.3878 294.408 16.7158 291.223 16.7158C287.956 16.7158 285.015 17.3878 282.402 18.5638C279.706 19.7398 277.42 21.4198 275.459 23.4358C273.499 25.5358 272.029 27.9718 270.967 30.6598C269.906 33.4318 269.416 36.3718 269.416 39.3958C269.416 42.5038 269.906 45.4438 270.967 48.2158C272.029 50.9878 273.499 53.4238 275.459 55.4398C277.338 57.5398 279.625 59.2198 282.32 60.3958C284.934 61.5718 287.874 62.1598 291.141 62.1598ZM305.761 36.4558H276.848C277.011 34.4398 277.42 32.5078 278.236 30.7438C279.053 29.0638 280.033 27.5518 281.34 26.2918C282.647 25.0318 284.117 24.0238 285.832 23.3518C287.466 22.6798 289.262 22.2598 291.223 22.2598C293.101 22.2598 294.898 22.6798 296.613 23.3518C298.247 24.0238 299.717 25.0318 301.023 26.2078C302.33 27.4678 303.392 28.9798 304.209 30.7438C305.026 32.5078 305.597 34.4398 305.761 36.4558Z" fill="white"/>
</svg>
