<svg width="30" height="29" viewBox="0 0 30 29" fill="none" xmlns="http://www.w3.org/2000/svg">
<path d="M15 13.0952C16.2361 13.0952 17.4445 12.7461 18.4723 12.092C19.5001 11.438 20.3012 10.5083 20.7742 9.42069C21.2473 8.33303 21.3711 7.13621 21.1299 5.98156C20.8888 4.82691 20.2935 3.7663 19.4194 2.93384C18.5453 2.10139 17.4317 1.53448 16.2193 1.30481C15.0069 1.07513 13.7503 1.19301 12.6082 1.64353C11.4662 2.09405 10.4901 2.85698 9.80331 3.83585C9.11656 4.81471 8.75 5.96554 8.75 7.14281C8.75198 8.7209 9.4111 10.2338 10.5828 11.3497C11.7544 12.4656 13.343 13.0933 15 13.0952ZM15 3.57138C15.7417 3.57138 16.4667 3.78084 17.0834 4.17328C17.7001 4.56571 18.1807 5.12349 18.4645 5.77609C18.7484 6.42868 18.8226 7.14677 18.6779 7.83956C18.5333 8.53235 18.1761 9.16872 17.6517 9.66819C17.1272 10.1677 16.459 10.5078 15.7316 10.6456C15.0042 10.7834 14.2502 10.7127 13.5649 10.4424C12.8797 10.1721 12.294 9.71431 11.882 9.12699C11.4699 8.53967 11.25 7.84917 11.25 7.14281C11.25 6.19561 11.6451 5.2872 12.3483 4.61743C13.0516 3.94766 14.0054 3.57138 15 3.57138ZM5 27.3809H25C25.3315 27.3809 25.6495 27.2555 25.8839 27.0322C26.1183 26.809 26.25 26.5062 26.25 26.1904V21.4285C26.248 19.8504 25.5889 18.3375 24.4172 17.2216C23.2456 16.1058 21.657 15.478 20 15.4761H10C8.34301 15.478 6.75445 16.1058 5.58277 17.2216C4.4111 18.3375 3.75198 19.8504 3.75 21.4285V26.1904C3.75 26.5062 3.8817 26.809 4.11612 27.0322C4.35054 27.2555 4.66848 27.3809 5 27.3809ZM6.25 21.4285C6.25 20.4813 6.64509 19.5729 7.34835 18.9031C8.05161 18.2334 9.00544 17.8571 10 17.8571H20C20.9946 17.8571 21.9484 18.2334 22.6517 18.9031C23.3549 19.5729 23.75 20.4813 23.75 21.4285V24.9999H6.25V21.4285Z" fill="black"/>
</svg>
