<svg width="31" height="29" viewBox="0 0 31 29" fill="none" xmlns="http://www.w3.org/2000/svg">
<g clip-path="url(#clip0_12_5)">
<path d="M21.125 20.5356H13.625V22.3214H21.125V20.5356Z" fill="black"/>
<path d="M11.75 20.5356H9.875V22.3214H11.75V20.5356Z" fill="black"/>
<path d="M21.125 16.0713H13.625V17.857H21.125V16.0713Z" fill="black"/>
<path d="M11.75 16.0713H9.875V17.857H11.75V16.0713Z" fill="black"/>
<path d="M21.125 11.6069H13.625V13.3926H21.125V11.6069Z" fill="black"/>
<path d="M11.75 11.6069H9.875V13.3926H11.75V11.6069Z" fill="black"/>
<path d="M23.9375 4.46422H21.125V3.57136C21.125 3.09776 20.9275 2.64355 20.5758 2.30867C20.2242 1.97378 19.7473 1.78564 19.25 1.78564H11.75C11.2527 1.78564 10.7758 1.97378 10.4242 2.30867C10.0725 2.64355 9.875 3.09776 9.875 3.57136V4.46422H7.0625C6.56522 4.46422 6.08831 4.65235 5.73667 4.98724C5.38504 5.32213 5.1875 5.77633 5.1875 6.24993V24.9999C5.1875 25.4735 5.38504 25.9277 5.73667 26.2626C6.08831 26.5975 6.56522 26.7856 7.0625 26.7856H23.9375C24.4348 26.7856 24.9117 26.5975 25.2633 26.2626C25.615 25.9277 25.8125 25.4735 25.8125 24.9999V6.24993C25.8125 5.77633 25.615 5.32213 25.2633 4.98724C24.9117 4.65235 24.4348 4.46422 23.9375 4.46422ZM11.75 3.57136H19.25V7.14279H11.75V3.57136ZM23.9375 24.9999H7.0625V6.24993H9.875V8.9285H21.125V6.24993H23.9375V24.9999Z" fill="black"/>
</g>
<defs>
<clipPath id="clip0_12_5">
<rect width="30" height="28.5714" fill="white" transform="translate(0.5)"/>
</clipPath>
</defs>
</svg>
