<svg width="30" height="29" viewBox="0 0 30 29" fill="none" xmlns="http://www.w3.org/2000/svg">
<path d="M25.6225 18.4523H4.375V24.4047H25.6225V18.4523ZM27.4306 17.2284L27.4576 17.3018L27.4865 17.4219L27.4976 17.5393V25.2975C27.4976 25.7496 27.1449 26.1231 26.6874 26.1823L26.5601 26.1904H3.4375C2.96288 26.1904 2.57064 25.8544 2.50856 25.4187L2.5 25.2975V17.5602L2.5023 17.4972L2.51589 17.3954C2.52856 17.3313 2.54801 17.2704 2.57367 17.2127L6.0228 10.0476C6.15646 9.76992 6.42806 9.57947 6.73941 9.5362L6.875 9.52683L10.0498 9.52591L9.06361 11.1571L8.97852 11.3116L7.47625 11.3118L4.8975 16.6663H25.0875L22.5535 11.4926L23.6315 9.71008C23.7147 9.77062 23.7876 9.84465 23.8464 9.9298L23.9121 10.0422L27.4306 17.2284ZM16.7065 2.44712L16.8208 2.50066L23.3059 6.07581C23.7161 6.30196 23.8791 6.77993 23.7045 7.18716L23.6484 7.29623L20.14 13.0963L21.5625 13.0971C22.0802 13.0971 22.5 13.4968 22.5 13.9899C22.5 14.4419 22.1473 14.8155 21.6898 14.8747L21.5625 14.8828L19.06 14.8821L19.0589 14.8856H13.9614L13.9575 14.8821L8.4375 14.8828C7.91974 14.8828 7.5 14.483 7.5 13.9899C7.5 13.5379 7.85269 13.1643 8.31029 13.1053L8.4375 13.0971L10.7162 13.0963L10.4893 12.9717C10.0791 12.7455 9.91606 12.2675 10.0908 11.8603L10.1468 11.7512L15.5426 2.82773C15.7794 2.43603 16.28 2.28036 16.7065 2.44712ZM16.6949 4.49431L12.2348 11.8704L14.4575 13.0963H17.9788L21.56 7.17633L16.6949 4.49431Z" fill="#212121"/>
</svg>
