<svg width="35" height="35" viewBox="0 0 35 35" fill="none" xmlns="http://www.w3.org/2000/svg">
<path d="M32.1825 10.1348C32.0073 9.48839 31.6659 8.89912 31.1924 8.42556C30.7188 7.95199 30.1295 7.61063 29.4831 7.43541C27.0856 6.80322 17.5 6.80322 17.5 6.80322C17.5 6.80322 7.91438 6.80322 5.51688 7.43541C4.20438 7.7876 3.17188 8.82229 2.8175 10.1348C2.1875 12.5301 2.1875 17.5001 2.1875 17.5001C2.1875 17.5001 2.1875 22.4942 2.8175 24.8654C3.17188 26.1779 4.20656 27.2126 5.51688 27.5648C7.91438 28.197 17.5 28.197 17.5 28.197C17.5 28.197 27.0856 28.197 29.4831 27.5648C30.1295 27.3896 30.7188 27.0482 31.1924 26.5746C31.6659 26.1011 32.0073 25.5118 32.1825 24.8654C32.8125 22.4701 32.8125 17.5001 32.8125 17.5001C32.8125 17.5001 32.8125 12.5301 32.1825 10.1348Z" fill="#FF0000"/>
<path d="M14.4221 22.1156L22.3934 17.5263L14.4221 12.9106V22.1156Z" fill="white"/>
</svg>
